<?xml version="1.0" encoding="UTF-8" standalone="no"?><!DOCTYPE svg PUBLIC "-//W3C//DTD SVG 1.1//EN" "http://www.w3.org/Graphics/SVG/1.1/DTD/svg11.dtd"><svg width="100%" height="100%" viewBox="0 0 478 36" version="1.1" xmlns="http://www.w3.org/2000/svg" xmlns:xlink="http://www.w3.org/1999/xlink" xml:space="preserve" xmlns:serif="http://www.serif.com/" style="fill-rule:evenodd;clip-rule:evenodd;stroke-linejoin:round;stroke-miterlimit:2;"><path d="M1.15,23.75c0.433,0 0.783,0.142 1.05,0.425c0.267,0.283 0.65,0.858 1.15,1.725c2.333,4.533 5.683,6.8 10.05,6.8l0.2,0c1.633,0 2.883,-0.442 3.75,-1.325c0.867,-0.883 1.333,-1.975 1.4,-3.275l-0,-0.15c-0,-0.933 -0.367,-1.825 -1.1,-2.675c-0.733,-0.85 -1.592,-1.567 -2.575,-2.15c-0.983,-0.583 -2.208,-1.258 -3.675,-2.025c-0.433,-0.2 -0.75,-0.35 -0.95,-0.45c-3.4,-1.733 -5.633,-3.033 -6.7,-3.9c-2.133,-1.767 -3.2,-4.017 -3.2,-6.75c-0,-2.767 1.175,-5.117 3.525,-7.05c2.35,-1.933 5.342,-2.9 8.975,-2.9c0.933,-0 2.042,0.117 3.325,0.35c1.283,0.233 2.058,0.35 2.325,0.35c0.433,-0 0.892,-0.117 1.375,-0.35c0.483,-0.233 0.875,-0.35 1.175,-0.35c0.467,-0 0.85,0.183 1.15,0.55c0.3,0.367 0.55,1.067 0.75,2.1c0.5,2.2 0.833,4.2 1,6l-0,0.4c-0,1.2 -0.417,1.8 -1.25,1.8c-0.633,-0 -1.417,-0.7 -2.35,-2.1c-2.5,-3.733 -5.25,-5.6 -8.25,-5.6c-1.567,-0 -2.783,0.392 -3.65,1.175c-0.867,0.783 -1.3,1.825 -1.3,3.125c-0,1.467 0.583,2.683 1.75,3.65c1.167,0.967 3.267,2.217 6.3,3.75l1.2,0.6c1.333,0.667 2.333,1.175 3,1.525c0.667,0.35 1.483,0.858 2.45,1.525c0.967,0.667 1.675,1.292 2.125,1.875c0.45,0.583 0.858,1.3 1.225,2.15c0.367,0.85 0.55,1.792 0.55,2.825l-0,0.1c-0,3.133 -1.292,5.658 -3.875,7.575c-2.583,1.917 -5.658,2.875 -9.225,2.875c-1.433,-0 -2.95,-0.15 -4.55,-0.45c-1.6,-0.3 -2.517,-0.45 -2.75,-0.45c-0.533,-0 -1.033,0.158 -1.5,0.475c-0.467,0.317 -0.85,0.475 -1.15,0.475c-0.967,-0 -1.6,-0.9 -1.9,-2.7c-0.533,-3.233 -0.867,-5.667 -1,-7.3l-0,-0.3c-0,-1.3 0.383,-1.95 1.15,-1.95Z" style="fill:#fff;fill-rule:nonzero;"/><path d="M28.3,34.2c-0,-0.4 0.15,-0.75 0.45,-1.05c0.3,-0.3 0.658,-0.558 1.075,-0.775c0.417,-0.217 0.883,-0.608 1.4,-1.175c0.517,-0.567 0.942,-1.267 1.275,-2.1l9,-22.4c0.2,-0.633 0.3,-1.15 0.3,-1.55c-0,-0.3 -0.092,-0.575 -0.275,-0.825c-0.183,-0.25 -0.517,-0.608 -1,-1.075c-0.483,-0.467 -0.725,-0.933 -0.725,-1.4c-0,-0.9 0.533,-1.35 1.6,-1.35l5.65,-0c0.9,-0 1.517,0.417 1.85,1.25l10.75,27.15c0.367,0.933 0.783,1.692 1.25,2.275c0.467,0.583 0.875,0.975 1.225,1.175c0.35,0.2 0.642,0.433 0.875,0.7c0.233,0.267 0.35,0.6 0.35,1c-0,0.533 -0.2,0.908 -0.6,1.125c-0.4,0.217 -1.083,0.325 -2.05,0.325l-8.05,-0c-1.6,-0 -2.4,-0.467 -2.4,-1.4c-0,-0.5 0.267,-0.95 0.8,-1.35c0.533,-0.4 0.892,-0.733 1.075,-1c0.183,-0.267 0.275,-0.567 0.275,-0.9c-0,-0.467 -0.117,-1.117 -0.35,-1.95l-0.75,-1.8c-0.267,-0.7 -0.583,-1.117 -0.95,-1.25c-0.6,-0.2 -2.617,-0.3 -6.05,-0.3c-3.733,-0 -5.833,0.117 -6.3,0.35c-0.3,0.167 -0.55,0.517 -0.75,1.05l-0.9,2.15c-0.3,0.933 -0.45,1.633 -0.45,2.1c-0,0.233 0.067,0.475 0.2,0.725c0.133,0.25 0.425,0.575 0.875,0.975c0.45,0.4 0.675,0.817 0.675,1.25c-0,0.867 -0.767,1.3 -2.3,1.3l-4.45,-0c-1.733,-0 -2.6,-0.417 -2.6,-1.25Zm11.3,-12.05c0.333,0.167 1.917,0.25 4.75,0.25c2.9,-0 4.467,-0.1 4.7,-0.3c0.067,-0.067 0.1,-0.167 0.1,-0.3c-0,-0.2 -0.067,-0.45 -0.2,-0.75l-4.65,-11.95l-4.65,11.8c-0.133,0.367 -0.2,0.667 -0.2,0.9c-0,0.167 0.05,0.283 0.15,0.35Z" style="fill:#fff;fill-rule:nonzero;"/><path d="M65.5,1.9c-0,-0.533 0.217,-0.9 0.65,-1.1c0.433,-0.2 1.15,-0.3 2.15,-0.3l19.1,0c1.367,0 2.342,0.133 2.925,0.4c0.583,0.267 0.992,0.717 1.225,1.35c0.733,1.767 1.233,3.483 1.5,5.15c0.067,0.367 0.1,0.7 0.1,1c-0,0.833 -0.283,1.317 -0.85,1.45c-0.133,0.033 -0.283,0.05 -0.45,0.05c-0.633,-0 -1.283,-0.5 -1.95,-1.5c-1,-1.633 -2.075,-2.833 -3.225,-3.6c-1.15,-0.767 -2.508,-1.15 -4.075,-1.15l-2.3,-0c-1.8,-0 -2.992,0.167 -3.575,0.5c-0.583,0.333 -0.875,0.917 -0.875,1.75l-0,7.8c-0,1 0.267,1.658 0.8,1.975c0.533,0.317 1.45,0.475 2.75,0.475l2.25,0c0.733,0 1.325,-0.2 1.775,-0.6c0.45,-0.4 0.75,-0.842 0.9,-1.325c0.15,-0.483 0.367,-0.925 0.65,-1.325c0.283,-0.4 0.642,-0.6 1.075,-0.6c0.533,-0 0.9,0.2 1.1,0.6c0.2,0.4 0.3,1.083 0.3,2.05l-0,5.85c-0,1.633 -0.467,2.45 -1.4,2.45c-0.433,0 -0.792,-0.208 -1.075,-0.625c-0.283,-0.417 -0.5,-0.867 -0.65,-1.35c-0.15,-0.483 -0.45,-0.933 -0.9,-1.35c-0.45,-0.417 -1.042,-0.625 -1.775,-0.625l-2.25,0c-1.3,0 -2.217,0.15 -2.75,0.45c-0.533,0.3 -0.8,0.967 -0.8,2l-0,5.35c-0,1.367 0.167,2.458 0.5,3.275c0.333,0.817 0.692,1.342 1.075,1.575c0.383,0.233 0.742,0.517 1.075,0.85c0.333,0.333 0.5,0.767 0.5,1.3c-0,0.5 -0.208,0.858 -0.625,1.075c-0.417,0.217 -1.125,0.325 -2.125,0.325l-7.95,0c-1.867,0 -2.8,-0.467 -2.8,-1.4c-0,-0.533 0.175,-0.967 0.525,-1.3c0.35,-0.333 0.725,-0.617 1.125,-0.85c0.4,-0.233 0.775,-0.758 1.125,-1.575c0.35,-0.817 0.525,-1.908 0.525,-3.275l-0,-18.1c-0,-0.967 -0.05,-1.75 -0.15,-2.35c-0.1,-0.733 -0.333,-1.342 -0.7,-1.825c-0.367,-0.483 -0.725,-0.817 -1.075,-1c-0.35,-0.183 -0.667,-0.433 -0.95,-0.75c-0.283,-0.317 -0.425,-0.708 -0.425,-1.175Z" style="fill:#fff;fill-rule:nonzero;"/><path d="M95.75,0.8c0.433,-0.2 1.15,-0.3 2.15,-0.3l19.15,0c1.367,0 2.342,0.133 2.925,0.4c0.583,0.267 0.992,0.717 1.225,1.35c0.7,1.533 1.2,3.25 1.5,5.15c0.067,0.367 0.1,0.7 0.1,1c-0,0.833 -0.283,1.317 -0.85,1.45c-0.133,0.033 -0.283,0.05 -0.45,0.05c-0.633,-0 -1.267,-0.5 -1.9,-1.5c-1,-1.633 -2.075,-2.833 -3.225,-3.6c-1.15,-0.767 -2.525,-1.15 -4.125,-1.15l-2.35,-0c-1.8,-0 -2.992,0.175 -3.575,0.525c-0.583,0.35 -0.875,0.942 -0.875,1.775l-0,6.95c-0,1 0.275,1.658 0.825,1.975c0.55,0.317 1.458,0.475 2.725,0.475l1.4,-0c0.733,-0 1.325,-0.2 1.775,-0.6c0.45,-0.4 0.75,-0.85 0.9,-1.35c0.15,-0.5 0.367,-0.95 0.65,-1.35c0.283,-0.4 0.642,-0.6 1.075,-0.6c0.533,-0 0.9,0.2 1.1,0.6c0.2,0.4 0.3,1.083 0.3,2.05l-0,5.85c-0,1.633 -0.467,2.45 -1.4,2.45c-0.433,-0 -0.792,-0.208 -1.075,-0.625c-0.283,-0.417 -0.5,-0.867 -0.65,-1.35c-0.15,-0.483 -0.45,-0.933 -0.9,-1.35c-0.45,-0.417 -1.042,-0.625 -1.775,-0.625l-1.4,0c-1.3,0 -2.217,0.158 -2.75,0.475c-0.533,0.317 -0.8,0.975 -0.8,1.975l-0,9.1c-0,0.867 0.308,1.475 0.925,1.825c0.617,0.35 1.892,0.525 3.825,0.525l3.3,-0.05c1.6,-0 2.8,-0.392 3.6,-1.175c0.8,-0.783 1.667,-2.175 2.6,-4.175c0.6,-1.3 1.25,-1.95 1.95,-1.95c0.1,-0 0.2,0.017 0.3,0.05c0.5,0.1 0.8,0.3 0.9,0.6c0.1,0.3 0.15,0.7 0.15,1.2l-0,0.5c-0.1,2.6 -0.35,4.617 -0.75,6.05c-0.2,0.8 -0.583,1.35 -1.15,1.65c-0.567,0.3 -1.583,0.45 -3.05,0.45l-20.15,-0c-1,-0 -1.717,-0.1 -2.15,-0.3c-0.433,-0.2 -0.65,-0.567 -0.65,-1.1c-0,-0.467 0.142,-0.858 0.425,-1.175c0.283,-0.317 0.6,-0.575 0.95,-0.775c0.35,-0.2 0.708,-0.542 1.075,-1.025c0.367,-0.483 0.6,-1.075 0.7,-1.775c0.1,-0.6 0.15,-1.383 0.15,-2.35l-0,-18c-0,-0.967 -0.05,-1.75 -0.15,-2.35c-0.1,-0.733 -0.333,-1.342 -0.7,-1.825c-0.367,-0.483 -0.725,-0.817 -1.075,-1c-0.35,-0.183 -0.667,-0.433 -0.95,-0.75c-0.283,-0.317 -0.425,-0.708 -0.425,-1.175c-0,-0.533 0.217,-0.9 0.65,-1.1Z" style="fill:#fff;fill-rule:nonzero;"/><path d="M126.9,0.8c0.433,-0.2 1.15,-0.3 2.15,-0.3l10.9,0c5.233,0 9.275,1.142 12.125,3.425c2.85,2.283 4.275,5.275 4.275,8.975c-0,4.7 -2,7.933 -6,9.7l3.75,6.6c0.433,0.733 0.917,1.358 1.45,1.875c0.533,0.517 0.983,0.867 1.35,1.05c0.367,0.183 0.675,0.433 0.925,0.75c0.25,0.317 0.375,0.725 0.375,1.225c-0,0.533 -0.192,0.9 -0.575,1.1c-0.383,0.2 -1.042,0.3 -1.975,0.3l-7.35,0c-1.6,0 -2.4,-0.483 -2.4,-1.45c-0,-0.433 0.208,-0.917 0.625,-1.45c0.417,-0.533 0.667,-0.925 0.75,-1.175c0.083,-0.25 0.125,-0.425 0.125,-0.525c-0,-0.433 -0.183,-1.083 -0.55,-1.95l-2.8,-4.9c-1.067,0.067 -1.9,0.1 -2.5,0.1l-3.95,0c-0.667,0 -1,0.333 -1,1l-0,2c-0,1.333 0.167,2.408 0.5,3.225c0.333,0.817 0.692,1.342 1.075,1.575c0.383,0.233 0.742,0.525 1.075,0.875c0.333,0.35 0.5,0.775 0.5,1.275c-0,0.533 -0.2,0.9 -0.6,1.1c-0.4,0.2 -1.117,0.3 -2.15,0.3l-7.95,0c-1,0 -1.717,-0.1 -2.15,-0.3c-0.433,-0.2 -0.65,-0.567 -0.65,-1.1c-0,-0.5 0.175,-0.925 0.525,-1.275c0.35,-0.35 0.725,-0.642 1.125,-0.875c0.4,-0.233 0.775,-0.758 1.125,-1.575c0.35,-0.817 0.525,-1.892 0.525,-3.225l-0,-18.15c-0,-0.967 -0.05,-1.75 -0.15,-2.35c-0.1,-0.733 -0.333,-1.342 -0.7,-1.825c-0.367,-0.483 -0.725,-0.817 -1.075,-1c-0.35,-0.183 -0.667,-0.433 -0.95,-0.75c-0.283,-0.317 -0.425,-0.708 -0.425,-1.175c-0,-0.533 0.217,-0.9 0.65,-1.1Zm9.7,4l-0,14.7c-0,0.6 0.325,1.017 0.975,1.25c0.65,0.233 1.858,0.35 3.625,0.35c2.5,0 4.442,-0.633 5.825,-1.9c1.383,-1.267 2.075,-3.1 2.075,-5.5c-0,-3.067 -0.875,-5.533 -2.625,-7.4c-1.75,-1.867 -4.008,-2.8 -6.775,-2.8l-0.55,-0c-1,-0 -1.675,0.083 -2.025,0.25c-0.35,0.167 -0.525,0.517 -0.525,1.05Z" style="fill:#fff;fill-rule:nonzero;"/><path d="M163,23.75c0.433,0 0.783,0.142 1.05,0.425c0.267,0.283 0.65,0.858 1.15,1.725c2.333,4.533 5.683,6.8 10.05,6.8l0.2,0c1.633,0 2.883,-0.442 3.75,-1.325c0.867,-0.883 1.333,-1.975 1.4,-3.275l-0,-0.15c-0,-0.933 -0.367,-1.825 -1.1,-2.675c-0.733,-0.85 -1.592,-1.567 -2.575,-2.15c-0.983,-0.583 -2.208,-1.258 -3.675,-2.025c-0.433,-0.2 -0.75,-0.35 -0.95,-0.45c-3.4,-1.733 -5.633,-3.033 -6.7,-3.9c-2.133,-1.767 -3.2,-4.017 -3.2,-6.75c-0,-2.767 1.175,-5.117 3.525,-7.05c2.35,-1.933 5.342,-2.9 8.975,-2.9c0.933,-0 2.042,0.117 3.325,0.35c1.283,0.233 2.058,0.35 2.325,0.35c0.433,-0 0.892,-0.117 1.375,-0.35c0.483,-0.233 0.875,-0.35 1.175,-0.35c0.467,-0 0.85,0.183 1.15,0.55c0.3,0.367 0.55,1.067 0.75,2.1c0.5,2.2 0.833,4.2 1,6l-0,0.4c-0,1.2 -0.417,1.8 -1.25,1.8c-0.633,-0 -1.417,-0.7 -2.35,-2.1c-2.5,-3.733 -5.25,-5.6 -8.25,-5.6c-1.567,-0 -2.783,0.392 -3.65,1.175c-0.867,0.783 -1.3,1.825 -1.3,3.125c-0,1.467 0.583,2.683 1.75,3.65c1.167,0.967 3.267,2.217 6.3,3.75l1.2,0.6c1.333,0.667 2.333,1.175 3,1.525c0.667,0.35 1.483,0.858 2.45,1.525c0.967,0.667 1.675,1.292 2.125,1.875c0.45,0.583 0.858,1.3 1.225,2.15c0.367,0.85 0.55,1.792 0.55,2.825l-0,0.1c-0,3.133 -1.292,5.658 -3.875,7.575c-2.583,1.917 -5.658,2.875 -9.225,2.875c-1.433,-0 -2.95,-0.15 -4.55,-0.45c-1.6,-0.3 -2.517,-0.45 -2.75,-0.45c-0.533,-0 -1.033,0.158 -1.5,0.475c-0.467,0.317 -0.85,0.475 -1.15,0.475c-0.967,-0 -1.6,-0.9 -1.9,-2.7c-0.533,-3.233 -0.867,-5.667 -1,-7.3l-0,-0.3c-0,-1.3 0.383,-1.95 1.15,-1.95Z" style="fill:#fff;fill-rule:nonzero;"/><path d="M191.55,1.9c-0,-0.533 0.217,-0.9 0.65,-1.1c0.433,-0.2 1.15,-0.3 2.15,-0.3l10.7,0c5.233,0 9.333,1.192 12.3,3.575c2.967,2.383 4.45,5.542 4.45,9.475c-0,3.733 -1.292,6.55 -3.875,8.45c-2.583,1.9 -6.392,2.85 -11.425,2.85l-3.6,0c-0.4,0 -0.667,0.058 -0.8,0.175c-0.133,0.117 -0.2,0.392 -0.2,0.825l-0,1.3c-0,1.333 0.167,2.408 0.5,3.225c0.333,0.817 0.692,1.342 1.075,1.575c0.383,0.233 0.742,0.525 1.075,0.875c0.333,0.35 0.5,0.775 0.5,1.275c-0,0.533 -0.2,0.9 -0.6,1.1c-0.4,0.2 -1.117,0.3 -2.15,0.3l-7.95,0c-1,0 -1.717,-0.1 -2.15,-0.3c-0.433,-0.2 -0.65,-0.567 -0.65,-1.1c-0,-0.5 0.175,-0.925 0.525,-1.275c0.35,-0.35 0.725,-0.642 1.125,-0.875c0.4,-0.233 0.775,-0.758 1.125,-1.575c0.35,-0.817 0.525,-1.892 0.525,-3.225l-0,-18.15c-0,-0.967 -0.05,-1.75 -0.15,-2.35c-0.1,-0.733 -0.333,-1.342 -0.7,-1.825c-0.367,-0.483 -0.725,-0.817 -1.075,-1c-0.35,-0.183 -0.667,-0.433 -0.95,-0.75c-0.283,-0.317 -0.425,-0.708 -0.425,-1.175Zm11.25,19.55c0.567,0.233 1.683,0.35 3.35,0.35c2.667,-0 4.742,-0.633 6.225,-1.9c1.483,-1.267 2.225,-3.117 2.225,-5.55c-0,-3.3 -0.933,-5.942 -2.8,-7.925c-1.867,-1.983 -4.15,-2.975 -6.85,-2.975c-1.333,0 -2.175,0.083 -2.525,0.25c-0.35,0.167 -0.525,0.533 -0.525,1.1l-0,15.4c-0,0.6 0.3,1.017 0.9,1.25Z" style="fill:#fff;fill-rule:nonzero;"/><path d="M218.8,34.2c-0,-0.4 0.15,-0.75 0.45,-1.05c0.3,-0.3 0.658,-0.558 1.075,-0.775c0.417,-0.217 0.883,-0.608 1.4,-1.175c0.517,-0.567 0.942,-1.267 1.275,-2.1l9,-22.4c0.2,-0.633 0.3,-1.15 0.3,-1.55c-0,-0.3 -0.092,-0.575 -0.275,-0.825c-0.183,-0.25 -0.517,-0.608 -1,-1.075c-0.483,-0.467 -0.725,-0.933 -0.725,-1.4c-0,-0.9 0.533,-1.35 1.6,-1.35l5.65,-0c0.9,-0 1.517,0.417 1.85,1.25l10.75,27.15c0.367,0.933 0.783,1.692 1.25,2.275c0.467,0.583 0.875,0.975 1.225,1.175c0.35,0.2 0.642,0.433 0.875,0.7c0.233,0.267 0.35,0.6 0.35,1c-0,0.533 -0.2,0.908 -0.6,1.125c-0.4,0.217 -1.083,0.325 -2.05,0.325l-8.05,-0c-1.6,-0 -2.4,-0.467 -2.4,-1.4c-0,-0.5 0.267,-0.95 0.8,-1.35c0.533,-0.4 0.892,-0.733 1.075,-1c0.183,-0.267 0.275,-0.567 0.275,-0.9c-0,-0.467 -0.117,-1.117 -0.35,-1.95l-0.75,-1.8c-0.267,-0.7 -0.583,-1.117 -0.95,-1.25c-0.6,-0.2 -2.617,-0.3 -6.05,-0.3c-3.733,-0 -5.833,0.117 -6.3,0.35c-0.3,0.167 -0.55,0.517 -0.75,1.05l-0.9,2.15c-0.3,0.933 -0.45,1.633 -0.45,2.1c-0,0.233 0.067,0.475 0.2,0.725c0.133,0.25 0.425,0.575 0.875,0.975c0.45,0.4 0.675,0.817 0.675,1.25c-0,0.867 -0.767,1.3 -2.3,1.3l-4.45,-0c-1.733,-0 -2.6,-0.417 -2.6,-1.25Zm11.3,-12.05c0.333,0.167 1.917,0.25 4.75,0.25c2.9,-0 4.467,-0.1 4.7,-0.3c0.067,-0.067 0.1,-0.167 0.1,-0.3c-0,-0.2 -0.067,-0.45 -0.2,-0.75l-4.65,-11.95l-4.65,11.8c-0.133,0.367 -0.2,0.667 -0.2,0.9c-0,0.167 0.05,0.283 0.15,0.35Z" style="fill:#fff;fill-rule:nonzero;"/><path d="M260.1,5.45c3.5,-3.633 7.817,-5.45 12.95,-5.45c1.267,0 2.583,0.158 3.95,0.475c1.367,0.317 2.167,0.475 2.4,0.475c0.433,0 0.892,-0.15 1.375,-0.45c0.483,-0.3 0.908,-0.45 1.275,-0.45c0.467,0 0.858,0.175 1.175,0.525c0.317,0.35 0.625,1.058 0.925,2.125c0.7,2.367 1.2,4.65 1.5,6.85c0.033,0.233 0.05,0.45 0.05,0.65c-0,1 -0.4,1.533 -1.2,1.6l-0.15,0c-0.4,0 -0.733,-0.133 -1,-0.4c-0.267,-0.267 -0.717,-0.867 -1.35,-1.8c-2.867,-4.233 -6.117,-6.35 -9.75,-6.35c-3.067,0 -5.542,1.142 -7.425,3.425c-1.883,2.283 -2.825,5.242 -2.825,8.875c-0,4.5 1.133,8.292 3.4,11.375c2.267,3.083 5.3,4.625 9.1,4.625c3.667,0 6.933,-1.55 9.8,-4.65c0.333,-0.367 0.667,-0.55 1,-0.55c0.067,0 0.217,0.033 0.45,0.1c0.233,0.067 0.383,0.233 0.45,0.5c0.067,0.267 0.1,0.467 0.1,0.6c-0,0.333 -0.083,0.683 -0.25,1.05c-1.133,2.2 -2.992,3.983 -5.575,5.35c-2.583,1.367 -5.375,2.05 -8.375,2.05c-5.133,-0 -9.3,-1.567 -12.5,-4.7c-3.2,-3.133 -4.8,-7.333 -4.8,-12.6c-0,-5.2 1.767,-9.617 5.3,-13.25Z" style="fill:#fff;fill-rule:nonzero;"/><path d="M289.9,0.8c0.433,-0.2 1.15,-0.3 2.15,-0.3l19.15,0c1.367,0 2.342,0.133 2.925,0.4c0.583,0.267 0.992,0.717 1.225,1.35c0.7,1.533 1.2,3.25 1.5,5.15c0.067,0.367 0.1,0.7 0.1,1c-0,0.833 -0.283,1.317 -0.85,1.45c-0.133,0.033 -0.283,0.05 -0.45,0.05c-0.633,-0 -1.267,-0.5 -1.9,-1.5c-1,-1.633 -2.075,-2.833 -3.225,-3.6c-1.15,-0.767 -2.525,-1.15 -4.125,-1.15l-2.35,-0c-1.8,-0 -2.992,0.175 -3.575,0.525c-0.583,0.35 -0.875,0.942 -0.875,1.775l-0,6.95c-0,1 0.275,1.658 0.825,1.975c0.55,0.317 1.458,0.475 2.725,0.475l1.4,-0c0.733,-0 1.325,-0.2 1.775,-0.6c0.45,-0.4 0.75,-0.85 0.9,-1.35c0.15,-0.5 0.367,-0.95 0.65,-1.35c0.283,-0.4 0.642,-0.6 1.075,-0.6c0.533,-0 0.9,0.2 1.1,0.6c0.2,0.4 0.3,1.083 0.3,2.05l-0,5.85c-0,1.633 -0.467,2.45 -1.4,2.45c-0.433,-0 -0.792,-0.208 -1.075,-0.625c-0.283,-0.417 -0.5,-0.867 -0.65,-1.35c-0.15,-0.483 -0.45,-0.933 -0.9,-1.35c-0.45,-0.417 -1.042,-0.625 -1.775,-0.625l-1.4,0c-1.3,0 -2.217,0.158 -2.75,0.475c-0.533,0.317 -0.8,0.975 -0.8,1.975l-0,9.1c-0,0.867 0.308,1.475 0.925,1.825c0.617,0.35 1.892,0.525 3.825,0.525l3.3,-0.05c1.6,-0 2.8,-0.392 3.6,-1.175c0.8,-0.783 1.667,-2.175 2.6,-4.175c0.6,-1.3 1.25,-1.95 1.95,-1.95c0.1,-0 0.2,0.017 0.3,0.05c0.5,0.1 0.8,0.3 0.9,0.6c0.1,0.3 0.15,0.7 0.15,1.2l-0,0.5c-0.1,2.6 -0.35,4.617 -0.75,6.05c-0.2,0.8 -0.583,1.35 -1.15,1.65c-0.567,0.3 -1.583,0.45 -3.05,0.45l-20.15,-0c-1,-0 -1.717,-0.1 -2.15,-0.3c-0.433,-0.2 -0.65,-0.567 -0.65,-1.1c-0,-0.467 0.142,-0.858 0.425,-1.175c0.283,-0.317 0.6,-0.575 0.95,-0.775c0.35,-0.2 0.708,-0.542 1.075,-1.025c0.367,-0.483 0.6,-1.075 0.7,-1.775c0.1,-0.6 0.15,-1.383 0.15,-2.35l-0,-18c-0,-0.967 -0.05,-1.75 -0.15,-2.35c-0.1,-0.733 -0.333,-1.342 -0.7,-1.825c-0.367,-0.483 -0.725,-0.817 -1.075,-1c-0.35,-0.183 -0.667,-0.433 -0.95,-0.75c-0.283,-0.317 -0.425,-0.708 -0.425,-1.175c-0,-0.533 0.217,-0.9 0.65,-1.1Z" style="fill:#fff;fill-rule:nonzero;"/><path d="M342.65,23.75c0.433,0 0.783,0.142 1.05,0.425c0.267,0.283 0.65,0.858 1.15,1.725c2.333,4.533 5.683,6.8 10.05,6.8l0.2,0c1.633,0 2.883,-0.442 3.75,-1.325c0.867,-0.883 1.333,-1.975 1.4,-3.275l-0,-0.15c-0,-0.933 -0.367,-1.825 -1.1,-2.675c-0.733,-0.85 -1.592,-1.567 -2.575,-2.15c-0.983,-0.583 -2.208,-1.258 -3.675,-2.025c-0.433,-0.2 -0.75,-0.35 -0.95,-0.45c-3.4,-1.733 -5.633,-3.033 -6.7,-3.9c-2.133,-1.767 -3.2,-4.017 -3.2,-6.75c-0,-2.767 1.175,-5.117 3.525,-7.05c2.35,-1.933 5.342,-2.9 8.975,-2.9c0.933,-0 2.042,0.117 3.325,0.35c1.283,0.233 2.058,0.35 2.325,0.35c0.433,-0 0.892,-0.117 1.375,-0.35c0.483,-0.233 0.875,-0.35 1.175,-0.35c0.467,-0 0.85,0.183 1.15,0.55c0.3,0.367 0.55,1.067 0.75,2.1c0.5,2.2 0.833,4.2 1,6l-0,0.4c-0,1.2 -0.417,1.8 -1.25,1.8c-0.633,-0 -1.417,-0.7 -2.35,-2.1c-2.5,-3.733 -5.25,-5.6 -8.25,-5.6c-1.567,-0 -2.783,0.392 -3.65,1.175c-0.867,0.783 -1.3,1.825 -1.3,3.125c-0,1.467 0.583,2.683 1.75,3.65c1.167,0.967 3.267,2.217 6.3,3.75l1.2,0.6c1.333,0.667 2.333,1.175 3,1.525c0.667,0.35 1.483,0.858 2.45,1.525c0.967,0.667 1.675,1.292 2.125,1.875c0.45,0.583 0.858,1.3 1.225,2.15c0.367,0.85 0.55,1.792 0.55,2.825l-0,0.1c-0,3.133 -1.292,5.658 -3.875,7.575c-2.583,1.917 -5.658,2.875 -9.225,2.875c-1.433,-0 -2.95,-0.15 -4.55,-0.45c-1.6,-0.3 -2.517,-0.45 -2.75,-0.45c-0.533,-0 -1.033,0.158 -1.5,0.475c-0.467,0.317 -0.85,0.475 -1.15,0.475c-0.967,-0 -1.6,-0.9 -1.9,-2.7c-0.533,-3.233 -0.867,-5.667 -1,-7.3l-0,-0.3c-0,-1.3 0.383,-1.95 1.15,-1.95Z" style="fill:#fff;fill-rule:nonzero;"/><path d="M371.2,34.1c-0,-0.467 0.142,-0.858 0.425,-1.175c0.283,-0.317 0.6,-0.575 0.95,-0.775c0.35,-0.2 0.708,-0.542 1.075,-1.025c0.367,-0.483 0.6,-1.075 0.7,-1.775c0.1,-0.6 0.15,-1.383 0.15,-2.35l-0,-18.15c-0,-1.333 -0.167,-2.408 -0.5,-3.225c-0.333,-0.817 -0.7,-1.342 -1.1,-1.575c-0.4,-0.233 -0.767,-0.525 -1.1,-0.875c-0.333,-0.35 -0.5,-0.775 -0.5,-1.275c-0,-0.533 0.2,-0.9 0.6,-1.1c0.4,-0.2 1.133,-0.3 2.2,-0.3l7.95,-0c1,-0 1.708,0.1 2.125,0.3c0.417,0.2 0.625,0.567 0.625,1.1c-0,0.5 -0.167,0.925 -0.5,1.275c-0.333,0.35 -0.708,0.642 -1.125,0.875c-0.417,0.233 -0.792,0.758 -1.125,1.575c-0.333,0.817 -0.5,1.892 -0.5,3.225l-0,21.2c-0,0.833 0.267,1.425 0.8,1.775c0.533,0.35 1.55,0.525 3.05,0.525l2.25,-0.05c1.6,-0 2.8,-0.392 3.6,-1.175c0.8,-0.783 1.667,-2.175 2.6,-4.175c0.6,-1.3 1.25,-1.95 1.95,-1.95c0.1,-0 0.2,0.017 0.3,0.05c0.5,0.1 0.8,0.3 0.9,0.6c0.1,0.3 0.15,0.7 0.15,1.2l-0,0.5c-0.1,2.6 -0.35,4.617 -0.75,6.05c-0.2,0.8 -0.583,1.35 -1.15,1.65c-0.567,0.3 -1.583,0.45 -3.05,0.45l-18.2,-0c-1,-0 -1.717,-0.1 -2.15,-0.3c-0.433,-0.2 -0.65,-0.567 -0.65,-1.1Z" style="fill:#fff;fill-rule:nonzero;"/><path d="M398.5,34.2c-0,-0.4 0.15,-0.75 0.45,-1.05c0.3,-0.3 0.658,-0.558 1.075,-0.775c0.417,-0.217 0.883,-0.608 1.4,-1.175c0.517,-0.567 0.942,-1.267 1.275,-2.1l9,-22.4c0.2,-0.633 0.3,-1.15 0.3,-1.55c-0,-0.3 -0.092,-0.575 -0.275,-0.825c-0.183,-0.25 -0.517,-0.608 -1,-1.075c-0.483,-0.467 -0.725,-0.933 -0.725,-1.4c-0,-0.9 0.533,-1.35 1.6,-1.35l5.65,-0c0.9,-0 1.517,0.417 1.85,1.25l10.75,27.15c0.367,0.933 0.783,1.692 1.25,2.275c0.467,0.583 0.875,0.975 1.225,1.175c0.35,0.2 0.642,0.433 0.875,0.7c0.233,0.267 0.35,0.6 0.35,1c-0,0.533 -0.2,0.908 -0.6,1.125c-0.4,0.217 -1.083,0.325 -2.05,0.325l-8.05,-0c-1.6,-0 -2.4,-0.467 -2.4,-1.4c-0,-0.5 0.267,-0.95 0.8,-1.35c0.533,-0.4 0.892,-0.733 1.075,-1c0.183,-0.267 0.275,-0.567 0.275,-0.9c-0,-0.467 -0.117,-1.117 -0.35,-1.95l-0.75,-1.8c-0.267,-0.7 -0.583,-1.117 -0.95,-1.25c-0.6,-0.2 -2.617,-0.3 -6.05,-0.3c-3.733,-0 -5.833,0.117 -6.3,0.35c-0.3,0.167 -0.55,0.517 -0.75,1.05l-0.9,2.15c-0.3,0.933 -0.45,1.633 -0.45,2.1c-0,0.233 0.067,0.475 0.2,0.725c0.133,0.25 0.425,0.575 0.875,0.975c0.45,0.4 0.675,0.817 0.675,1.25c-0,0.867 -0.767,1.3 -2.3,1.3l-4.45,-0c-1.733,-0 -2.6,-0.417 -2.6,-1.25Zm11.3,-12.05c0.333,0.167 1.917,0.25 4.75,0.25c2.9,-0 4.467,-0.1 4.7,-0.3c0.067,-0.067 0.1,-0.167 0.1,-0.3c-0,-0.2 -0.067,-0.45 -0.2,-0.75l-4.65,-11.95l-4.65,11.8c-0.133,0.367 -0.2,0.667 -0.2,0.9c-0,0.167 0.05,0.283 0.15,0.35Z" style="fill:#fff;fill-rule:nonzero;"/><path d="M435.85,34.15c-0,-0.367 0.15,-0.7 0.45,-1c0.3,-0.3 0.633,-0.567 1,-0.8c0.367,-0.233 0.708,-0.617 1.025,-1.15c0.317,-0.533 0.492,-1.183 0.525,-1.95l0.95,-22.2l-0,-0.25c-0,-0.7 -0.133,-1.308 -0.4,-1.825c-0.267,-0.517 -0.583,-0.883 -0.95,-1.1c-0.367,-0.217 -0.7,-0.492 -1,-0.825c-0.3,-0.333 -0.45,-0.717 -0.45,-1.15c-0,-0.533 0.183,-0.9 0.55,-1.1c0.367,-0.2 0.983,-0.3 1.85,-0.3l5.8,-0c0.933,-0 1.567,0.417 1.9,1.25l9.4,22.05l10.2,-22c0.4,-0.867 1.033,-1.3 1.9,-1.3l5.5,-0c0.867,-0 1.483,0.1 1.85,0.3c0.367,0.2 0.55,0.567 0.55,1.1c-0,0.433 -0.15,0.817 -0.45,1.15c-0.3,0.333 -0.633,0.6 -1,0.8c-0.367,0.2 -0.683,0.558 -0.95,1.075c-0.267,0.517 -0.4,1.142 -0.4,1.875l-0,0.25l0.7,21.1c0.033,0.833 0.175,1.525 0.425,2.075c0.25,0.55 0.533,0.958 0.85,1.225c0.317,0.267 0.633,0.5 0.95,0.7c0.317,0.2 0.583,0.45 0.8,0.75c0.217,0.3 0.325,0.683 0.325,1.15c-0,0.533 -0.2,0.908 -0.6,1.125c-0.4,0.217 -1.083,0.325 -2.05,0.325l-7.7,-0c-1,-0 -1.708,-0.108 -2.125,-0.325c-0.417,-0.217 -0.625,-0.592 -0.625,-1.125c-0,-0.533 0.15,-0.983 0.45,-1.35c0.3,-0.367 0.633,-0.658 1,-0.875c0.367,-0.217 0.692,-0.642 0.975,-1.275c0.283,-0.633 0.425,-1.433 0.425,-2.4l-0.4,-18.9l-10.55,22.75c-0.367,0.767 -0.967,1.25 -1.8,1.45c-0.2,0.033 -0.4,0.05 -0.6,0.05c-0.7,0 -1.15,-0.3 -1.35,-0.9l-9.7,-23.05l-0.65,19.7l-0,0.2c-0,0.867 0.2,1.583 0.6,2.15c0.4,0.567 0.817,1.025 1.25,1.375c0.433,0.35 0.65,0.758 0.65,1.225c-0,0.5 -0.175,0.833 -0.525,1c-0.35,0.167 -0.942,0.25 -1.775,0.25l-4.45,0c-0.867,0 -1.475,-0.092 -1.825,-0.275c-0.35,-0.183 -0.525,-0.525 -0.525,-1.025Z" style="fill:#fff;fill-rule:nonzero;"/></svg>